#!OML:ASF H:\Dans Jumps\Project 1\Capture day 1\Session 1\subject.ASF
:FULLY-SPECIFIED
:DEGREES
310
root 0.64176 17.5847 -14.794 9.94665 -1.49124 -0.709342
lowerback 2.81385 -0.0608134 -0.18418
upperback 6.54266 -0.142702 1.45765
thorax 5.19184 -0.123903 1.61053
lowerneck -11.7637 0.553594 -2.28772
upperneck 35.3756 0.780307 1.7739
head 13.9833 0.262528 1.23746
rclavicle 3.97569e-016 -8.54774e-015
rhumerus -18.2274 8.55571 -90.0695
rradius 30.4795
rwrist 27.5242
rhand -15.0201 -25.976
rfingers 7.12502
rthumb 11.1454 -55.66
lclavicle 3.97569e-016 -8.54774e-015
lhumerus -18.515 -30.8593 97.0286
lradius 27.0435
lwrist 20.3698
lhand -17.3007 -0.533507
lfingers 7.12502
lthumb 8.94523 29.2569
rfemur -23.1911 -2.70821 19.1495
rtibia 26.7242
rfoot -12.202 -4.32004
rtoes 11.8496
lfemur -21.5089 6.73727 -20.0761
ltibia 23.0352
lfoot -9.59643 5.74696
ltoes 7.1184
311
root 0.642328 17.5909 -14.7895 9.97378 -1.43663 -0.71843
lowerback 2.75268 -0.0782881 -0.165015
upperback 6.50867 -0.166503 1.47044
thorax 5.19134 -0.134958 1.61249
lowerneck -11.7833 0.541821 -2.31873
upperneck 35.3928 0.758167 1.81245
head 13.9957 0.25385 1.25569
rclavicle 2.68359e-015 2.06736e-014
rhumerus -18.3109 8.61385 -90.0219
rradius 30.422
rwrist 27.3809
rhand -14.8467 -25.8778
rfingers 7.12502
rthumb 11.3126 -55.5527
lclavicle 2.68359e-015 2.06736e-014
lhumerus -18.6555 -31.1937 97.1284
lradius 27.0858
lwrist 20.6953
lhand -17.1116 -0.345138
lfingers 7.12502
lthumb 9.12765 29.4373
rfemur -23.0933 -2.76017 19.1608
rtibia 26.5336
rfoot -12.1502 -4.30337
rtoes 11.9146
lfemur -21.4187 6.72815 -20.0672
ltibia 22.8328
lfoot -9.54575 5.67967
ltoes 7.18987
312
root 0.64298 17.5973 -14.7847 10.0023 -1.38202 -0.723201
lowerback 2.68835 -0.097006 -0.153398
upperback 6.47352 -0.191951 1.48331
thorax 5.1915 -0.147208 1.61871
lowerneck -11.8049 0.531041 -2.34637
upperneck 35.3998 0.739103 1.84402
head 14.0039 0.24611 1.27081
rclavicle -7.95139e-016 -4.77083e-015
rhumerus -18.4031 8.69253 -89.9795
rradius 30.3791
rwrist 27.2211
rhand -14.6532 -25.7672
rfingers 7.12502
rthumb 11.4992 -55.4318
lclavicle -7.95139e-016 -4.77083e-015
lhumerus -18.7766 -31.4159 97.2186
lradius 27.1046
lwrist 20.8125
lhand -17.0424 -0.247689
lfingers 7.12502
lthumb 9.19443 29.5319
rfemur -22.9914 -2.81254 19.1665
rtibia 26.3341
rfoot -12.096 -4.28602
rtoes 11.9723
lfemur -21.3216 6.72273 -20.0642
ltibia 22.6149
lfoot -9.49189 5.60666
ltoes 7.26643
313
root 0.643699 17.604 -14.7797 10.0311 -1.32815 -0.723138
lowerback 2.62246 -0.116559 -0.150117
upperback 6.43848 -0.218467 1.49565
thorax 5.19276 -0.160391 1.629
lowerneck -11.8357 0.516835 -2.38068
upperneck 35.4017 0.715363 1.88033
head 14.0119 0.236144 1.28833
rclavicle 1.49089e-015 1.35174e-014
rhumerus -18.4976 8.78857 -89.943
rradius 30.3467
rwrist 27.0492
rhand -14.4485 -25.6499
rfingers 7.12502
rthumb 11.6966 -55.3034
lclavicle 1.49089e-015 1.35174e-014
lhumerus -18.8761 -31.5318 97.2961
lradius 27.0954
lwrist 20.7022
lhand -17.0438 -0.235091
lfingers 7.12502
lthumb 9.19304 29.5445
rfemur -22.8862 -2.86483 19.1663
rtibia 26.1296
rfoot -12.0416 -4.26884
rtoes 12.0231
lfemur -21.2192 6.72083 -20.0674
ltibia 22.3859
lfoot -9.43553 5.52921
ltoes 7.34254
314
root 0.644412 17.6107 -14.7746 10.0574 -1.27765 -0.718631
lowerback 2.55997 -0.135858 -0.155699
upperback 6.40261 -0.244525 1.50714
thorax 5.19125 -0.173742 1.64334
lowerneck -11.8667 0.503445 -2.41106
upperneck 35.3952 0.693563 1.9116
head 14.0162 0.226941 1.30328
rclavicle -4.77083e-015 -1.59028e-014
rhumerus -18.5975 8.89966 -89.9125
rradius 30.3243
rwrist 26.8719
rhand -14.2341 -25.5365
rfingers 7.12502
rthumb 11.9034 -55.1781
lclavicle -4.77083e-015 -1.59028e-014
lhumerus -18.961 -31.5719 97.3657
lradius 27.0599
lwrist 20.4023
lhand -17.0902 -0.263824
lfingers 7.12502
lthumb 9.14827 29.5178
rfemur -22.7778 -2.91334 19.1604
rtibia 25.9245
rfoot -11.988 -4.25247
rtoes 12.0791
lfemur -21.1106 6.72105 -20.0753
ltibia 22.1503
lfoot -9.37605 5.45207
ltoes 7.41039
315
root 0.645034 17.6173 -14.7695 10.085 -1.22959 -0.712695
lowerback 2.49699 -0.154817 -0.167152
upperback 6.36534 -0.270052 1.5181
thorax 5.1886 -0.187087 1.66039
lowerneck -11.8968 0.489272 -2.44092
upperneck 35.3816 0.670668 1.94229
head 14.0171 0.217318 1.31759
rclavicle 1.98785e-015 2.38542e-015
rhumerus -18.7005 9.0179 -89.8885
rradius 30.3103
rwrist 26.6986
rhand -14.0178 -25.4376
rfingers 7.12502
rthumb 12.112 -55.0671
lclavicle 1.98785e-015 2.38542e-015
lhumerus -19.036 -31.5614 97.4293
lradius 26.9996
lwrist 19.9696
lhand -17.1848 -0.334037
lfingers 7.12502
lthumb 9.05704 29.4515
rfemur -22.6717 -2.95704 19.153
rtibia 25.7212
rfoot -11.9362 -4.2389
rtoes 12.1418
lfemur -21.0025 6.72215 -20.0844
ltibia 21.9129
lfoot -9.31485 5.37725
ltoes 7.47642
316
root 0.645674 17.6237 -14.7643 10.1114 -1.18636 -0.704548
lowerback 2.43627 -0.172322 -0.183294
upperback 6.32589 -0.293488 1.52739
thorax 5.18232 -0.199542 1.67835
lowerneck -11.914 0.477147 -2.46549
upperneck 35.352 0.649999 1.97032
head 14.0079 0.209136 1.32982
rclavicle 2.98177e-016 -6.36111e-015
rhumerus -18.8119 9.13985 -89.871
rradius 30.3092
rwrist 26.5355
rhand -13.8068 -25.368
rfingers 7.12502
rthumb 12.3154 -54.9854
lclavicle 2.98177e-016 -6.36111e-015
lhumerus -19.1089 -31.5275 97.4923
lradius 26.9229
lwrist 19.4931
lhand -17.3177 -0.413101
lfingers 7.12502
lthumb 8.92874 29.378
rfemur -22.5674 -2.99968 19.1431
rtibia 25.5228
rfoot -11.8878 -4.22236
rtoes 12.2112
lfemur -20.8938 6.72008 -20.095
ltibia 21.6788
lfoot -9.25273 5.31127
ltoes 7.53185
317
root 0.646329 17.6296 -14.7591 10.137 -1.14776 -0.69857
lowerback 2.37616 -0.18787 -0.198058
upperback 6.28659 -0.31426 1.53522
thorax 5.1758 -0.210559 1.69406
lowerneck -11.9267 0.467991 -2.47834
upperneck 35.3134 0.633897 1.98861
head 13.9935 0.203264 1.33652
rclavicle -4.96962e-015 -1.03368e-014
rhumerus -18.9231 9.25826 -89.8587
rradius 30.3146
rwrist 26.3946
rhand -13.6152 -25.3199
rfingers 7.12502
rthumb 12.5001 -54.926
lclavicle -4.96962e-015 -1.03368e-014
lhumerus -19.179 -31.4973 97.5544
lradius 26.8424
lwrist 19.0671
lhand -17.5046 -0.503935
lfingers 7.12502
lthumb 8.74838 29.2948
rfemur -22.4665 -3.03885 19.1355
rtibia 25.331
rfoot -11.8427 -4.20436
rtoes 12.29
lfemur -20.788 6.71612 -20.1025
ltibia 21.4536
lfoot -9.19196 5.25352
ltoes 7.58794
318
root 0.647111 17.6352 -14.754 10.1623 -1.11407 -0.694513
lowerback 2.31521 -0.201009 -0.208271
upperback 6.24749 -0.331751 1.54033
thorax 5.16982 -0.219645 1.70445
lowerneck -11.9281 0.461715 -2.48166
upperneck 35.2602 0.621889 1.99941
head 13.9699 0.199558 1.33876
rclavicle 1.49089e-015 3.57812e-015
rhumerus -19.0328 9.36531 -89.8511
rradius 30.3249
rwrist 26.2852
rhand -13.4474 -25.2897
rfingers 7.12502
rthumb 12.6619 -54.8859
lclavicle 1.49089e-015 3.57812e-015
lhumerus -19.2464 -31.4794 97.6154
lradius 26.7664
lwrist 18.7552
lhand -17.7339 -0.577922
lfingers 7.12502
lthumb 8.52716 29.2299
rfemur -22.3708 -3.07517 19.1295
rtibia 25.1483
rfoot -11.7994 -4.18433
rtoes 12.364
lfemur -20.6888 6.71296 -20.1083
ltibia 21.2424
lfoot -9.13583 5.20212
ltoes 7.64568
